<svg width="840" height="300" viewBox="0 0 840 300" fill="none" xmlns="http://www.w3.org/2000/svg">
<path d="M64.76 49.1078C48.5497 55.8932 30.7292 75.0628 25.1009 99.1248C17.9731 129.612 47.6352 142.505 50.0681 138.277C52.9316 133.31 44.753 131.631 43.0695 115.812C40.8937 95.3816 50.3919 72.5526 62.3457 62.5359C64.5677 60.6749 64.462 63.2651 64.462 68.0562C64.462 76.6238 63.9886 153.536 63.9886 169.587C63.9886 191.307 63.0915 198.166 61.4803 204.943C59.8478 211.811 57.2233 216.452 59.212 218.24C61.4339 220.239 70.9206 215.483 76.4126 207.818C82.9983 198.625 85.3036 187.584 85.7175 175.595C86.2174 161.141 86.1961 138.207 86.2174 125.126C86.2374 113.128 86.4195 77.996 86.0071 56.876C85.906 51.6957 71.5392 46.2608 64.7592 49.1015M640.386 150.755C639.864 162.047 637.364 170.872 634.262 177.098C628.257 189.15 615.795 192.892 610.504 175.567C607.621 166.123 607.486 150.351 609.559 137.172C611.669 123.746 617.561 113.607 627.318 114.521C636.942 115.425 641.446 127.826 640.386 150.754V150.755ZM478.151 220.811C478.02 239.573 475.068 256.023 468.736 260.8C459.755 267.575 447.684 262.493 450.183 248.803C452.395 236.688 462.854 224.315 478.176 209.198C478.176 209.198 478.208 212.646 478.151 220.811H478.151ZM475.698 150.646C475.149 160.93 472.483 171.262 469.574 177.099C463.57 189.151 451.018 192.919 445.816 175.568C442.259 163.714 443.111 148.371 444.871 138.703C447.154 126.16 452.689 114.524 462.63 114.524C472.295 114.524 477.061 125.127 475.698 150.646V150.646ZM381.715 150.488C381.126 161.381 379.001 170.486 375.591 177.099C369.421 189.068 357.216 192.864 351.833 175.568C347.952 163.097 349.273 146.091 350.887 136.905C353.283 123.273 359.282 113.608 368.647 114.524C378.266 115.464 382.943 127.827 381.715 150.489V150.488ZM812.419 163.211C810.067 163.211 808.994 165.635 808.106 169.715C805.027 183.902 801.79 187.105 797.616 187.105C792.953 187.105 788.763 180.08 787.686 166.018C786.84 154.961 786.976 134.604 788.058 114.355C788.279 110.194 787.132 106.078 775.972 102.024C771.171 100.28 764.191 97.7127 760.715 106.102C750.896 129.803 747.054 148.619 746.15 156.263C746.103 156.658 745.618 156.739 745.533 155.815C744.957 149.693 743.669 138.568 743.509 115.193C743.478 110.633 742.512 106.751 737.478 103.573C734.212 101.511 724.294 97.8634 720.723 102.203C717.629 105.751 714.046 115.301 710.322 126.622C707.296 135.823 705.189 142.047 705.189 142.047C705.189 142.047 705.229 117.221 705.265 107.804C705.281 104.252 702.844 103.068 702.109 102.853C698.802 101.893 692.286 100.29 689.52 100.29C686.107 100.29 685.271 102.197 685.271 104.977C685.271 105.341 684.733 137.662 684.733 160.263C684.733 161.245 684.733 162.316 684.743 163.454C682.855 173.842 676.733 187.943 670.076 187.943C663.411 187.943 660.266 182.047 660.266 155.104C660.266 139.385 660.738 132.551 660.97 121.182C661.104 114.634 661.364 109.606 661.35 108.465C661.301 104.965 655.25 103.202 652.434 102.55C649.605 101.892 647.147 101.638 645.228 101.747C642.511 101.9 640.589 103.683 640.589 106.134C640.589 107.449 640.603 109.948 640.603 109.948C637.104 104.449 631.476 100.622 627.731 99.5129C617.645 96.5175 607.121 99.1716 599.182 110.28C592.873 119.107 589.069 129.103 587.572 143.466C586.478 153.966 586.835 164.614 588.78 173.619C586.43 183.78 582.067 187.943 577.289 187.943C570.353 187.943 565.325 176.621 565.909 157.042C566.294 144.164 568.871 135.126 571.688 122.051C572.889 116.478 571.913 113.56 569.465 110.763C567.22 108.198 562.437 106.888 555.561 108.499C550.664 109.648 543.661 110.884 537.254 111.833C537.254 111.833 537.641 110.291 537.958 107.571C539.624 93.3101 524.127 94.4672 519.183 99.0223C516.232 101.742 514.223 104.949 513.46 110.716C512.251 119.868 519.715 124.184 519.715 124.184C517.266 135.394 511.263 150.038 505.066 160.625C501.746 166.298 499.207 170.501 495.929 174.969C495.917 173.305 495.908 171.642 495.902 169.986C495.827 146.418 496.14 127.87 496.279 121.184C496.414 114.636 496.676 109.741 496.661 108.6C496.624 106.041 495.13 105.074 492.021 103.85C489.272 102.768 486.022 102.019 482.651 101.757C478.396 101.426 475.832 103.682 475.899 106.351C475.912 106.855 475.912 109.949 475.912 109.949C472.412 104.45 466.784 100.623 463.04 99.5138C452.953 96.5197 442.429 99.1739 434.49 110.281C428.182 119.107 424.051 131.493 422.881 143.357C421.79 154.415 421.992 163.812 423.478 171.728C421.874 179.655 417.263 187.944 412.049 187.944C405.384 187.944 401.591 182.048 401.591 155.105C401.591 139.386 402.063 132.552 402.295 121.184C402.43 114.636 402.69 109.607 402.675 108.467C402.626 104.968 396.575 103.204 393.76 102.551C390.813 101.869 388.27 101.619 386.317 101.763C383.74 101.955 381.928 104.262 381.928 105.983V109.949C378.429 104.45 372.801 100.623 369.056 99.5138C358.97 96.5197 348.504 99.2166 340.507 110.281C335.292 117.496 331.07 125.494 328.897 143.2C328.269 148.317 327.992 153.108 328.028 157.587C325.949 170.305 316.764 184.963 309.25 184.963C304.854 184.963 300.667 176.435 300.667 158.261C300.667 134.053 302.165 99.5845 302.418 96.2625C302.418 96.2625 311.911 96.1012 313.75 96.0798C318.485 96.0278 322.773 96.1398 329.08 95.8172C332.243 95.6559 335.291 84.3034 332.026 82.8984C330.546 82.2625 320.088 81.7053 315.943 81.6173C312.457 81.5383 302.752 80.8201 302.752 80.8201C302.752 80.8201 303.622 57.9418 303.825 55.525C303.997 53.5107 301.391 52.4736 299.896 51.8443C296.262 50.3073 293.011 49.5714 289.157 48.7769C283.833 47.6785 281.417 48.7529 280.945 53.2467C280.235 60.0668 279.867 80.0429 279.867 80.0429C275.96 80.0429 262.613 79.2791 258.704 79.2791C255.073 79.2791 251.154 94.8961 256.174 95.088C261.95 95.312 272.016 95.5053 278.69 95.7066C278.69 95.7066 278.392 130.743 278.392 141.559C278.392 142.71 278.402 143.818 278.404 144.893C274.732 164.036 261.796 174.377 261.796 174.377C264.574 161.713 258.899 152.203 248.677 144.152C244.911 141.186 237.476 135.569 229.158 129.415C229.158 129.415 233.976 124.667 238.248 115.114C241.276 108.347 241.406 100.603 233.976 98.8956C221.698 96.0721 211.575 105.089 208.555 114.715C206.216 122.172 207.463 127.706 212.047 133.454C212.381 133.874 212.744 134.303 213.118 134.735C210.347 140.077 206.54 147.269 203.315 152.847C194.365 168.332 187.603 180.58 182.494 180.58C178.409 180.58 178.464 168.145 178.464 156.502C178.464 146.465 179.205 131.375 179.797 115.751C179.993 110.584 177.409 107.641 173.078 104.974C170.447 103.355 164.83 100.17 161.578 100.17C156.709 100.17 142.663 100.833 129.39 139.224C127.718 144.063 124.432 152.88 124.432 152.88L124.715 106.713C124.715 105.63 124.138 104.584 122.818 103.868C120.582 102.654 114.608 100.17 109.297 100.17C106.766 100.17 105.503 101.347 105.503 103.693L105.04 175.922C105.04 181.41 105.183 187.812 105.726 190.613C106.266 193.416 107.142 195.697 108.227 197.054C109.31 198.409 110.563 199.442 112.628 199.868C114.551 200.264 125.079 201.616 125.626 197.593C126.282 192.771 126.307 187.556 131.835 168.106C140.441 137.825 151.662 123.051 156.937 117.804C157.859 116.887 158.912 116.832 158.861 118.333C158.636 124.972 157.844 141.561 157.311 155.654C155.882 193.369 162.743 200.36 172.548 200.36C180.049 200.36 190.623 192.907 201.958 174.04C209.025 162.282 215.886 150.754 220.816 142.445C224.252 145.625 228.107 149.048 231.959 152.704C240.912 161.201 243.852 169.276 241.901 176.935C240.41 182.791 234.792 188.826 224.794 182.96C221.88 181.249 220.636 179.927 217.706 177.998C216.132 176.961 213.728 176.652 212.287 177.737C208.544 180.56 206.403 184.15 205.181 188.594C203.991 192.919 208.323 195.205 212.812 197.204C216.678 198.925 224.987 200.485 230.286 200.663C250.933 201.353 267.473 190.694 278.986 163.198C281.047 186.944 289.819 200.381 305.059 200.381C315.247 200.381 325.463 187.211 329.93 174.256C331.212 179.537 333.111 184.129 335.562 188.013C347.305 206.619 370.086 202.614 381.529 186.815C385.067 181.933 385.606 180.179 385.606 180.179C387.275 195.097 399.289 200.309 406.167 200.309C413.871 200.309 421.825 196.667 427.4 184.117C428.054 185.479 428.767 186.779 429.545 188.013C441.288 206.618 464.069 202.614 475.512 186.814C476.052 186.073 476.52 185.401 476.93 184.798L477.266 194.597C477.266 194.597 470.737 200.585 466.73 204.259C449.094 220.44 435.683 232.716 434.696 247.012C433.43 265.241 448.214 272.015 459.398 272.903C471.276 273.846 481.447 267.284 487.699 258.102C493.198 250.02 496.798 232.624 496.534 215.443C496.428 208.564 496.255 199.816 496.119 190.439C502.318 183.24 509.302 174.142 515.733 163.492C522.741 151.886 530.251 136.3 534.097 124.17C534.097 124.17 540.623 124.226 547.587 123.77C549.814 123.625 550.454 124.08 550.042 125.713C549.545 127.686 541.244 159.704 548.82 181.033C554.005 195.634 565.695 200.332 572.626 200.332C580.739 200.332 588.5 194.205 592.659 185.107C593.161 186.121 593.684 187.102 594.256 188.009C605.999 206.614 628.7 202.586 640.223 186.81C642.824 183.251 644.3 180.174 644.3 180.174C646.773 195.614 658.78 200.384 665.657 200.384C672.821 200.384 679.62 197.447 685.136 184.395C685.367 190.142 685.729 194.841 686.303 196.322C686.652 197.228 688.687 198.366 690.168 198.915C696.722 201.345 703.406 200.196 705.879 199.696C707.592 199.349 708.928 197.975 709.11 194.426C709.59 185.108 709.296 169.452 712.12 157.817C716.862 138.29 721.285 130.716 723.383 126.966C724.558 124.865 725.883 124.518 725.931 126.742C726.03 131.241 726.254 144.453 728.091 162.204C729.44 175.26 731.242 182.976 732.627 185.419C736.58 192.403 741.461 192.733 745.437 192.733C747.965 192.733 753.254 192.034 752.78 187.59C752.55 185.424 752.954 172.036 757.629 152.798C760.682 140.235 765.771 128.884 767.607 124.734C768.284 123.204 768.599 124.41 768.588 124.645C768.201 133.297 767.334 161.595 770.858 177.072C775.636 198.039 789.457 200.385 794.274 200.385C804.556 200.385 812.965 192.564 815.798 171.984C816.48 167.031 815.47 163.207 812.442 163.207" fill="white"/>
</svg>
